<?xml version="1.0" standalone="no"?>
<!DOCTYPE svg PUBLIC "-//W3C//DTD SVG 20010904//EN"
 "http://www.w3.org/TR/2001/REC-SVG-20010904/DTD/svg10.dtd">
<svg version="1.0" xmlns="http://www.w3.org/2000/svg"
 width="202.000000pt" height="202.000000pt" viewBox="0 0 202.000000 202.000000"
 preserveAspectRatio="xMidYMid meet">
<metadata>
Created by potrace 1.11, written by Peter Selinger 2001-2013
</metadata>
<g transform="translate(0.000000,202.000000) scale(0.100000,-0.100000)"
fill="#000000" stroke="none">
<path d="M376 1999 c-14 -11 -26 -30 -26 -42 0 -14 -25 -47 -68 -90 -56 -55
-73 -67 -100 -67 -44 0 -68 -14 -87 -50 -41 -80 16 -190 118 -229 l27 -11 -19
-32 c-25 -39 -20 -48 28 -48 40 0 61 14 61 40 0 9 8 24 19 34 17 16 19 15 25
-21 14 -89 -4 -237 -45 -363 -38 -115 -114 -249 -189 -335 -38 -44 -70 -82
-70 -85 0 -3 39 -41 86 -84 55 -51 105 -109 140 -163 29 -45 57 -83 61 -83 4
0 19 12 35 27 l27 26 45 -41 c51 -47 96 -71 209 -113 162 -60 250 -122 338
-238 l25 -34 36 49 c77 104 165 164 325 223 113 42 158 66 209 113 l45 41 27
-26 c16 -15 31 -27 35 -27 4 0 32 38 61 83 35 54 85 112 140 163 47 43 86 81
86 84 0 3 -32 41 -70 85 -161 183 -267 498 -234 698 6 36 8 37 25 21 11 -10
19 -25 19 -34 0 -26 21 -40 61 -40 48 0 53 9 28 48 l-19 32 27 11 c102 39 159
149 118 229 -19 36 -43 50 -87 50 -28 0 -44 11 -101 68 -41 41 -67 76 -67 89
0 27 -45 63 -79 63 -54 0 -134 -49 -214 -132 -87 -90 -134 -114 -240 -125 -53
-5 -66 -11 -93 -40 -17 -18 -34 -33 -39 -33 -5 0 -22 15 -39 33 -27 29 -40 35
-93 40 -106 11 -153 35 -240 125 -115 118 -208 157 -267 111z"/>
</g>
</svg>
